<?xml version="1.0" encoding="utf-8"?>
<!-- Uploaded to: SVG Repo, www.svgrepo.com, Generator: SVG Repo Mixer Tools -->
<svg fill="#000000" width="800px" height="800px" viewBox="-9.5 0 32 32" version="1.1" xmlns="http://www.w3.org/2000/svg">
<title>facebook</title>
<path d="M7.44 26.68h-2.92c-1 0-1.84-0.84-1.84-1.84v-6.56h-0.84c-1 0-1.84-0.84-1.84-1.84v-2.48c0-1 0.84-1.84 1.84-1.84h0.88v-0.8c0-3.68 2.12-6 5.56-6 1.2 0 2.24 0.080 2.68 0.12 0.92 0.12 1.6 0.92 1.6 1.84v2.48c0 1-0.84 1.84-1.84 1.84h-1.36v0.52h1.28c1 0 1.84 0.84 1.84 1.84 0 0.12 0 0.2-0.040 0.32l-0.4 2.4c-0.12 0.88-0.92 1.56-1.84 1.56h-0.84v6.56c-0.040 1.040-0.88 1.88-1.92 1.88zM1.84 13.8c-0.080 0-0.16 0.080-0.16 0.16v2.48c0 0.080 0.080 0.16 0.16 0.16h1.72c0.48 0 0.84 0.36 0.84 0.84v7.36c0 0.080 0.080 0.16 0.16 0.16h2.92c0.080 0 0.16-0.080 0.16-0.16v-7.36c0-0.48 0.36-0.84 0.84-0.84h1.68c0.080 0 0.16-0.080 0.16-0.16l0.4-2.48c0-0.080-0.080-0.16-0.16-0.16h-2.12c-0.48 0-0.84-0.36-0.84-0.84v-1.68c0-0.36 0.040-0.6 0.12-0.8s0.2-0.32 0.4-0.4c0.2-0.12 0.48-0.16 0.88-0.16h1.68c0.080 0 0.16-0.080 0.16-0.16v-2.48c0-0.080-0.080-0.16-0.16-0.16-0.32-0.040-1.32-0.12-2.44-0.12-3.36 0-3.88 2.72-3.88 4.32v1.64c0 0.48-0.36 0.84-0.84 0.84 0 0-1.68 0-1.68 0z"></path>
</svg>